<svg width="572" height="460" viewBox="0 0 572 460" fill="none" xmlns="http://www.w3.org/2000/svg">
<g clip-path="url(#clip0)">
<path d="M103.061 303.094C102.558 303.094 102.058 303.015 101.58 302.862C100.974 302.671 100.412 302.361 99.927 301.952C99.4418 301.542 99.0427 301.04 98.7529 300.476L94.0799 291.422C93.4936 290.283 93.3835 288.958 93.7739 287.738C94.1643 286.518 95.0233 285.502 96.1623 284.914L171.704 246.008C172.844 245.422 174.171 245.312 175.392 245.702C176.613 246.092 177.63 246.951 178.219 248.088L182.892 257.142C183.478 258.281 183.588 259.606 183.198 260.826C182.807 262.046 181.948 263.062 180.809 263.65L105.268 302.556C104.586 302.909 103.829 303.094 103.061 303.094Z" fill="#6C63FF"/>
<path d="M130.463 267.819C130.666 268.098 130.838 268.398 130.977 268.713L138.959 286.126C139.216 286.707 139.357 287.332 139.372 287.967C139.387 288.601 139.277 289.233 139.048 289.825C138.818 290.417 138.474 290.958 138.036 291.417C137.597 291.877 137.072 292.245 136.49 292.501L109.643 301.875C106.85 302.849 103.797 302.766 101.063 301.641C98.3277 300.516 96.101 298.428 94.8044 295.773L95.1148 295.622L94.8047 295.773C93.4475 292.994 93.2108 289.8 94.1434 286.852C95.0761 283.904 97.1069 281.427 99.8161 279.932L124.572 266.258C125.584 265.805 126.722 265.713 127.794 265.997C128.866 266.281 129.809 266.925 130.463 267.819V267.819Z" fill="#2F2E41"/>
<path d="M446.601 222.236H317.27C314.327 222.227 311.485 221.155 309.271 219.217L256 172.284C254.172 170.671 251.815 169.781 249.375 169.782H203.402V11.3878C203.406 8.36865 204.608 5.47409 206.745 3.33919C208.882 1.20429 211.78 0.00341231 214.802 0H435.201C438.223 0.00341048 441.121 1.20429 443.258 3.33919C445.395 5.47409 446.597 8.36865 446.601 11.3878L446.601 222.236Z" fill="#FF5F5F"/>
<path d="M256.256 73.5034C269.612 73.5034 280.438 62.6883 280.438 49.3473C280.438 36.0063 269.612 25.1913 256.256 25.1913C242.901 25.1913 232.075 36.0063 232.075 49.3473C232.075 62.6883 242.901 73.5034 256.256 73.5034Z" fill="white"/>
<path d="M350.22 36.4066H305.311C304.486 36.4066 303.695 36.7338 303.112 37.3163C302.529 37.8987 302.202 38.6887 302.202 39.5124C302.202 40.3361 302.529 41.1261 303.112 41.7085C303.695 42.291 304.486 42.6182 305.311 42.6182H350.22C351.044 42.6182 351.835 42.291 352.418 41.7085C353.001 41.1261 353.329 40.3361 353.329 39.5124C353.329 38.6887 353.001 37.8987 352.418 37.3163C351.835 36.7338 351.044 36.4066 350.22 36.4066Z" fill="white"/>
<path d="M415.413 56.0765H304.717C303.328 56.0765 302.202 57.4707 302.202 59.1823C302.202 60.8939 303.328 62.2881 304.717 62.2881H415.413C416.802 62.2881 417.928 60.8939 417.928 59.1823C417.928 57.4707 416.802 56.0765 415.413 56.0765Z" fill="white"/>
<path d="M406.715 97.6594H243.288C241.962 97.6594 240.884 99.0536 240.884 100.765C240.884 102.477 241.962 103.871 243.288 103.871H406.715C408.041 103.871 409.119 102.477 409.119 100.765C409.119 99.0536 408.041 97.6594 406.715 97.6594Z" fill="white"/>
<path d="M406.715 116.984H243.288C241.962 116.984 240.884 118.378 240.884 120.09C240.884 121.802 241.962 123.196 243.288 123.196H406.715C408.041 123.196 409.119 121.802 409.119 120.09C409.119 118.378 408.041 116.984 406.715 116.984Z" fill="white"/>
<path d="M406.715 136.309H243.288C241.962 136.309 240.884 137.703 240.884 139.415C240.884 141.126 241.962 142.521 243.288 142.521H406.715C408.041 142.521 409.119 141.126 409.119 139.415C409.119 137.703 408.041 136.309 406.715 136.309Z" fill="white"/>
<path d="M406.715 155.634H243.288C241.962 155.634 240.884 157.028 240.884 158.74C240.884 160.451 241.962 161.845 243.288 161.845H406.715C408.041 161.845 409.119 160.451 409.119 158.74C409.119 157.028 408.041 155.634 406.715 155.634Z" fill="white"/>
<path d="M553.691 222.236H317.27C314.917 222.24 312.614 221.553 310.648 220.26L310.492 220.158V59.0097C310.496 55.9905 311.698 53.096 313.835 50.9611C315.972 48.8262 318.87 47.6253 321.892 47.6219H542.291C545.313 47.6253 548.211 48.8262 550.348 50.9611C552.485 53.096 553.688 55.9905 553.691 59.0097L553.691 222.236Z" fill="#6C63FF"/>
<path d="M363.347 121.125C376.702 121.125 387.528 110.31 387.528 96.9693C387.528 83.6283 376.702 72.8132 363.347 72.8132C349.992 72.8132 339.165 83.6283 339.165 96.9693C339.165 110.31 349.992 121.125 363.347 121.125Z" fill="white"/>
<path d="M457.31 84.0285H412.401C411.576 84.0285 410.786 84.3557 410.203 84.9382C409.62 85.5206 409.292 86.3106 409.292 87.1343C409.292 87.958 409.62 88.7479 410.203 89.3304C410.786 89.9128 411.576 90.2401 412.401 90.2401H457.31C458.134 90.2401 458.925 89.9128 459.508 89.3304C460.091 88.7479 460.419 87.958 460.419 87.1343C460.419 86.3106 460.091 85.5206 459.508 84.9382C458.925 84.3557 458.134 84.0285 457.31 84.0285Z" fill="white"/>
<path d="M522.503 103.698H411.807C410.418 103.698 409.292 105.093 409.292 106.804C409.292 108.516 410.418 109.91 411.807 109.91H522.503C523.892 109.91 525.018 108.516 525.018 106.804C525.018 105.093 523.892 103.698 522.503 103.698Z" fill="white"/>
<path d="M513.805 145.281H350.379C349.052 145.281 347.974 146.675 347.974 148.387C347.974 150.099 349.052 151.493 350.379 151.493H513.805C515.132 151.493 516.209 150.099 516.209 148.387C516.209 146.675 515.132 145.281 513.805 145.281Z" fill="white"/>
<path d="M513.805 164.606H350.379C349.052 164.606 347.974 166 347.974 167.712C347.974 169.424 349.052 170.818 350.379 170.818H513.805C515.132 170.818 516.209 169.424 516.209 167.712C516.209 166 515.132 164.606 513.805 164.606Z" fill="white"/>
<path d="M513.805 183.931H350.379C349.052 183.931 347.974 185.325 347.974 187.037C347.974 188.748 349.052 190.143 350.379 190.143H513.805C515.132 190.143 516.209 188.748 516.209 187.037C516.209 185.325 515.132 183.931 513.805 183.931Z" fill="white"/>
<path d="M513.805 203.256H350.379C349.052 203.256 347.974 204.65 347.974 206.362C347.974 208.073 349.052 209.467 350.379 209.467H513.805C515.132 209.467 516.209 208.073 516.209 206.362C516.209 204.65 515.132 203.256 513.805 203.256Z" fill="white"/>
<path d="M560.255 220.51H317.27C314.935 220.513 312.667 219.725 310.838 218.274C310.693 218.164 310.555 218.046 310.417 217.922L289.848 199.805L257.141 170.99C254.997 169.099 252.235 168.056 249.375 168.057H189.93C186.816 168.061 183.831 169.299 181.629 171.498C179.428 173.698 178.189 176.68 178.184 179.79V448.267C178.189 451.377 179.428 454.359 181.629 456.559C183.831 458.758 186.816 459.996 189.93 460H560.255C563.368 459.996 566.353 458.758 568.555 456.559C570.757 454.359 571.996 451.377 572 448.267V232.243C571.996 229.133 570.757 226.151 568.555 223.951C566.353 221.752 563.368 220.515 560.255 220.51ZM570.618 448.267C570.615 451.012 569.522 453.643 567.579 455.584C565.636 457.525 563.002 458.616 560.255 458.62H189.93C187.182 458.616 184.548 457.525 182.605 455.584C180.662 453.643 179.569 451.012 179.566 448.267V179.79C179.569 177.045 180.662 174.414 182.605 172.473C184.548 170.532 187.182 169.441 189.93 169.437H249.375C251.899 169.435 254.337 170.356 256.229 172.025L287.762 199.805L309.498 218.957C311.649 220.84 314.41 221.882 317.27 221.89H560.255C563.002 221.894 565.636 222.986 567.579 224.926C569.522 226.867 570.615 229.498 570.618 232.243V448.267Z" fill="#3F3D56"/>
<path d="M71.3385 261.983C91.7602 261.983 108.315 245.446 108.315 225.046C108.315 204.646 91.7602 188.109 71.3385 188.109C50.9169 188.109 34.3619 204.646 34.3619 225.046C34.3619 245.446 50.9169 261.983 71.3385 261.983Z" fill="#6C63FF"/>
<path d="M71.0395 459.598H60.8422C59.56 459.597 58.3307 459.087 57.424 458.182C56.5173 457.276 56.0073 456.048 56.0059 454.767V369.866C56.0073 368.586 56.5173 367.358 57.424 366.452C58.3307 365.546 59.56 365.037 60.8422 365.035H71.0395C72.3217 365.037 73.551 365.546 74.4577 366.452C75.3644 367.358 75.8744 368.586 75.8758 369.866V454.767C75.8744 456.048 75.3644 457.276 74.4577 458.182C73.551 459.087 72.3217 459.597 71.0395 459.598Z" fill="#6C63FF"/>
<path d="M93.1484 459.598H82.9511C81.6689 459.597 80.4396 459.087 79.5329 458.182C78.6262 457.276 78.1162 456.048 78.1148 454.767V369.866C78.1162 368.586 78.6262 367.358 79.5329 366.452C80.4396 365.546 81.6689 365.037 82.9511 365.035H93.1484C94.4307 365.037 95.66 365.546 96.5666 366.452C97.4733 367.358 97.9833 368.586 97.9847 369.866V454.767C97.9833 456.048 97.4733 457.276 96.5666 458.182C95.66 459.087 94.4307 459.597 93.1484 459.598Z" fill="#6C63FF"/>
<path d="M130.178 351.069C130.178 381.182 101.823 390.895 71.6782 390.895C41.5337 390.895 21.0154 381.182 21.0154 351.069C21.0154 320.957 41.3069 269.629 71.4514 269.629C101.596 269.629 130.178 320.957 130.178 351.069Z" fill="#2F2E41"/>
<path d="M70.5617 238.736L70.5232 237.356C73.0938 237.285 75.3602 237.123 77.0632 235.881C77.546 235.508 77.9428 235.036 78.2267 234.497C78.5106 233.958 78.6749 233.364 78.7084 232.755C78.7384 232.384 78.6821 232.01 78.5439 231.663C78.4058 231.317 78.1895 231.007 77.912 230.758C76.7815 229.804 74.9625 230.113 73.6366 230.72L72.4933 231.243L74.6858 215.238L76.0548 215.425L74.1899 229.04C75.9914 228.511 77.6606 228.739 78.8039 229.703C79.2429 230.086 79.5873 230.565 79.8103 231.103C80.0333 231.641 80.1287 232.223 80.0892 232.804C80.0489 233.621 79.8301 234.42 79.4482 235.144C79.0662 235.868 78.5304 236.5 77.8782 236.995C75.6901 238.593 72.8466 238.672 70.5617 238.736Z" fill="#2F2E41"/>
<path d="M90.2673 216.6H82.8252V217.98H90.2673V216.6Z" fill="#2F2E41"/>
<path d="M66.7765 216.6H59.3344V217.98H66.7765V216.6Z" fill="#2F2E41"/>
<path d="M482.182 412.378H279.056C276.309 412.375 273.675 411.283 271.732 409.342C269.789 407.402 268.696 404.77 268.693 402.025V290.218C268.696 287.473 269.789 284.841 271.732 282.901C273.675 280.96 276.309 279.868 279.056 279.865H482.182C484.93 279.868 487.564 280.96 489.507 282.901C491.45 284.841 492.543 287.473 492.546 290.218V402.025C492.543 404.77 491.45 407.402 489.507 409.342C487.564 411.283 484.93 412.375 482.182 412.378ZM279.056 281.245C276.675 281.248 274.392 282.194 272.708 283.876C271.025 285.558 270.077 287.839 270.075 290.218V402.025C270.077 404.404 271.025 406.685 272.708 408.367C274.392 410.049 276.675 410.995 279.056 410.998H482.182C484.564 410.995 486.847 410.049 488.531 408.367C490.214 406.685 491.162 404.404 491.164 402.025V290.218C491.162 287.839 490.214 285.558 488.531 283.876C486.847 282.194 484.564 281.248 482.182 281.245H279.056Z" fill="#FF5F5F"/>
<path d="M311.874 345.431C325.23 345.431 336.056 334.616 336.056 321.275C336.056 307.934 325.23 297.119 311.874 297.119C298.519 297.119 287.693 307.934 287.693 321.275C287.693 334.616 298.519 345.431 311.874 345.431Z" fill="#FF5F5F"/>
<path d="M405.837 308.335H360.929C360.104 308.335 359.313 308.662 358.73 309.244C358.147 309.827 357.82 310.617 357.82 311.44C357.82 312.264 358.147 313.054 358.73 313.637C359.313 314.219 360.104 314.546 360.929 314.546H405.837C406.662 314.546 407.453 314.219 408.036 313.637C408.619 313.054 408.946 312.264 408.946 311.44C408.946 310.617 408.619 309.827 408.036 309.244C407.453 308.662 406.662 308.335 405.837 308.335Z" fill="#FF5F5F"/>
<path d="M471.031 328.005H360.335C358.946 328.005 357.82 329.399 357.82 331.11C357.82 332.822 358.946 334.216 360.335 334.216H471.031C472.42 334.216 473.546 332.822 473.546 331.11C473.546 329.399 472.42 328.005 471.031 328.005Z" fill="#FF5F5F"/>
<path d="M462.333 369.587H298.906C297.58 369.587 296.502 370.982 296.502 372.693C296.502 374.405 297.58 375.799 298.906 375.799H462.333C463.659 375.799 464.737 374.405 464.737 372.693C464.737 370.982 463.659 369.587 462.333 369.587Z" fill="#FF5F5F"/>
<path d="M462.333 388.912H298.906C297.58 388.912 296.502 390.306 296.502 392.018C296.502 393.73 297.58 395.124 298.906 395.124H462.333C463.659 395.124 464.737 393.73 464.737 392.018C464.737 390.306 463.659 388.912 462.333 388.912Z" fill="#FF5F5F"/>
<path d="M41.828 214.897C44.7038 210.573 49.764 208.74 54.7538 208.294C60.3703 207.792 65.7972 208.874 71.2809 209.925C77.3158 211.082 83.7029 212.164 89.7839 210.702C92.4739 210.08 94.9876 208.856 97.1355 207.123C99.2833 205.39 101.009 203.192 102.183 200.696C104.409 195.825 104.889 190.337 103.542 185.154C102.117 179.642 98.5795 174.792 94.2917 171.129C85.5402 163.653 73.6972 160.292 62.3062 160.609C50.9585 160.902 39.9906 164.754 30.9567 171.62C21.9078 178.735 15.5401 188.703 12.8931 199.898C10.1251 211.001 11.0268 222.701 15.4635 233.25C17.9561 239.026 21.5612 244.234 24.343 249.864C26.933 255.107 28.9277 261.203 27.3162 267.05C25.9021 272.182 21.7504 276.74 16.5384 278.133C11.5741 279.46 6.67248 277.285 3.95241 273.001C1.34693 268.897 1.28459 263.521 5.19657 260.207C6.1829 259.358 7.33185 258.718 8.57356 258.326C9.81527 257.934 11.1238 257.799 12.4195 257.928C13.7153 258.057 14.9712 258.448 16.1109 259.077C17.2506 259.707 18.2503 260.561 19.0492 261.588C20.6363 263.647 21.3467 266.249 21.0264 268.828C20.8337 270.131 22.8305 270.693 23.0251 269.378C23.4919 266.65 22.9742 263.846 21.5643 261.464C20.1544 259.083 17.9438 257.278 15.3263 256.373C12.7089 255.467 9.85464 255.519 7.27213 256.52C4.68962 257.521 2.5466 259.405 1.22487 261.836C-1.13426 266.267 0.138628 271.611 3.13333 275.399C4.67843 277.416 6.77266 278.946 9.16546 279.806C11.5583 280.665 14.1483 280.818 16.6257 280.246C22.0768 278.988 26.5362 274.66 28.6333 269.574C30.968 263.912 29.8983 257.594 27.6223 252.099C25.1621 246.16 21.5086 240.834 18.6194 235.11C16.0034 229.938 14.3387 224.339 13.7046 218.579C12.4355 207.012 15.0635 195.353 21.1728 185.445C27.3998 175.692 36.9043 168.476 47.9789 165.094C58.8989 161.67 70.9426 161.775 81.6347 165.983C92.1666 170.128 102.336 179.162 102.214 191.295C102.162 196.478 100.236 201.764 96.2621 205.221C91.5127 209.352 84.8997 209.705 78.9294 209.06C72.9212 208.412 67.0867 206.659 61.0526 206.212C55.8041 205.823 50.1419 206.227 45.4557 208.832C43.2733 210.048 41.4154 211.769 40.0383 213.852C39.2981 214.965 41.0925 216.003 41.828 214.897L41.828 214.897Z" fill="#2F2E41"/>
<path d="M31.1758 388.02C30.9313 388.02 30.6871 388.001 30.4454 387.964L20.3642 386.432C19.0968 386.237 17.9583 385.549 17.1984 384.517C16.4384 383.486 16.1192 382.195 16.3107 380.928L29.0997 296.995C29.2941 295.729 29.9832 294.591 31.016 293.832C32.0488 293.073 33.3408 292.754 34.6087 292.945L44.6899 294.478C45.9573 294.672 47.0959 295.361 47.8558 296.392C48.6157 297.424 48.9349 298.715 48.7434 299.981L35.9543 383.915C35.7788 385.056 35.2008 386.097 34.3245 386.85C33.4483 387.603 32.3315 388.018 31.1758 388.02Z" fill="#6C63FF"/>
<path d="M43.223 330.817C42.8783 330.817 42.5346 330.78 42.1976 330.708L23.4016 326.929C22.7802 326.796 22.1912 326.542 21.6681 326.182C21.1451 325.821 20.6984 325.361 20.3535 324.828C20.0086 324.295 19.7722 323.699 19.658 323.074C19.5438 322.45 19.5539 321.809 19.6877 321.188L27.8678 293.978C28.7195 291.149 30.5807 288.73 33.0986 287.18C35.6165 285.631 38.6162 285.057 41.529 285.569L41.469 285.909L41.529 285.57C44.5773 286.105 47.3031 287.79 49.1433 290.276C50.9835 292.762 51.7974 295.859 51.4167 298.927L47.9489 326.972C47.721 328.057 47.1274 329.03 46.2672 329.73C45.407 330.43 44.3324 330.814 43.223 330.817H43.223Z" fill="#2F2E41"/>
<path d="M132.555 460H24.0826C23.8994 460 23.7236 459.927 23.5941 459.798C23.4645 459.668 23.3917 459.493 23.3917 459.31C23.3917 459.127 23.4645 458.951 23.5941 458.822C23.7236 458.692 23.8994 458.62 24.0826 458.62H132.555C132.738 458.62 132.914 458.692 133.043 458.822C133.173 458.951 133.246 459.127 133.246 459.31C133.246 459.493 133.173 459.668 133.043 459.798C132.914 459.927 132.738 460 132.555 460Z" fill="#3F3D56"/>
</g>
<defs>
<clipPath id="clip0">
<rect width="572" height="460" fill="white"/>
</clipPath>
</defs>
</svg>
